<svg width="132" height="47" viewBox="0 0 132 47" fill="none" xmlns="http://www.w3.org/2000/svg">
<g clip-path="url(#clip0_4_618)">
<path d="M14.5606 46.9807C10.6275 46.8246 7.4097 45.7494 4.89362 43.7524C4.41344 43.3709 3.26922 42.2271 2.88534 41.7446C1.86504 40.4629 1.17136 39.2154 0.708691 37.8314C-0.715022 33.5709 0.017712 27.9802 2.80453 21.8446C5.19062 16.5916 8.87247 11.3818 15.296 4.1662C16.2422 3.10444 19.06 -0.000732422 19.0782 -0.000732422C19.0849 -0.000732422 18.9314 0.26504 18.7381 0.588682C17.0679 3.38368 15.6388 6.67591 14.8603 9.52609C13.6097 14.0994 13.7605 18.0241 15.3021 21.0674C16.3655 23.164 18.1886 24.98 20.2386 25.9839C23.8275 27.7407 29.0819 27.886 35.4987 26.4091C35.9405 26.3069 57.8323 20.5009 84.1474 13.5066C110.462 6.51173 131.997 0.793225 132 0.797933C132.007 0.803999 70.8625 26.944 39.1213 40.5053C34.0945 42.6523 32.7503 43.1946 30.3871 44.0236C24.3461 46.143 18.9348 47.1543 14.5606 46.9807Z" fill="white"/>
</g>
<defs>
<clipPath id="clip0_4_618">
<rect width="132" height="47" fill="white"/>
</clipPath>
</defs>
</svg>
